<svg version="1.1" xmlns="http://www.w3.org/2000/svg" xmlns:xlink="http://www.w3.org/1999/xlink" width="75.4" height="44.80608" viewBox="0,0,75.4,44.80608"><g transform="translate(-202.3,-157.59696)"><g data-paper-data="{&quot;isPaintingLayer&quot;:true}" fill-rule="nonzero" stroke-linecap="butt" stroke-linejoin="miter" stroke-miterlimit="10" stroke-dasharray="" stroke-dashoffset="0" style="mix-blend-mode: normal"><path d="M204.8,192.10304c0,-7.80942 0,-19.29454 0,-23.8c0,-3.62174 1.62099,-8.4 12.2,-8.2c8.58182,0.16224 33.95198,0 48.2,0c5.97922,0 10,4.08016 10,9.4c0,7.77412 0,18.19562 0,22.4c0,2.31137 -2.45177,8 -6.4,8c-14.18429,0 -47.68277,0 -56.2,0c-3.84334,0 -7.8,-5.79698 -7.8,-7.8z" fill="#000000" stroke="#44ff13" stroke-width="5"/><path d="M204.8,192.10304c0,-7.80942 0,-19.29454 0,-23.8c0,-3.62174 1.62099,-8.4 12.2,-8.2c8.58182,0.16224 33.95198,0 48.2,0c5.97921,0 10,4.08016 10,9.4c0,7.77413 0,18.19562 0,22.4c0,2.31137 -2.45177,8 -6.4,8c-14.1843,0 -47.68276,0 -56.2,0c-3.84334,0 -7.8,-5.79698 -7.8,-7.8z" fill="#000000" stroke="none" stroke-width="0"/><text transform="translate(211.51008,184.9879) scale(0.43232,0.43232)" font-size="40" xml:space="preserve" fill="#fdfdfd" fill-rule="nonzero" stroke="none" stroke-width="1" stroke-linecap="butt" stroke-linejoin="miter" stroke-miterlimit="10" stroke-dasharray="" stroke-dashoffset="0" font-family="&quot;Microsoft YaHei&quot;, &quot;微软雅黑&quot;, STXihei, &quot;华文细黑&quot;" font-weight="normal" text-anchor="start" style="mix-blend-mode: normal"><tspan x="0" dy="0">Aimbot</tspan></text></g></g></svg>